<svg width="194" height="25" viewBox="0 0 194 25" fill="none" xmlns="http://www.w3.org/2000/svg">
<path d="M0 23.3404L8.4986 0.786845H15.7628L24.024 23.3404H17.5432L16.2376 19.4361H7.78643L6.50452 23.3404H0ZM8.97338 14.8045H15.0506L12.0595 5.85842H12.012L8.97338 14.8045Z" fill="#131313"/>
<path d="M23.8103 13.0108V0.786845H30.0774V12.5372C30.0774 16.1283 31.8341 17.8922 34.7778 17.8922C37.7214 17.8922 39.4544 16.1283 39.4544 12.5372V0.786845H45.7215V13.0108C45.7215 20.0029 41.7096 23.8774 34.7778 23.8774C27.846 23.8774 23.8103 20.0029 23.8103 13.0108Z" fill="#131313"/>
<path d="M47.4307 12.5372C47.4307 5.16481 52.2735 0.220027 59.4902 0.220027C64.9977 0.220027 69.2232 3.21449 69.9354 7.65585L64.0718 8.97968C63.6208 7.08902 61.7217 5.82859 59.4902 5.82859C56.048 5.82859 53.7216 8.41285 53.7216 12.3172C53.7216 16.0016 56.3566 18.5224 60.2736 18.5224C63.3597 18.5224 65.6861 16.822 65.9235 14.4577H56.9026V10.3296H71.9532V23.3404H67.0155L66.7781 19.5591H66.7544C65.1638 22.1732 61.9591 23.8737 58.4219 23.8737C51.8462 23.8737 47.4307 19.3055 47.4307 12.5335V12.5372Z" fill="#131313"/>
<path d="M73.9711 0.786845H82.0424L87.9534 16.0016H88.0009L93.817 0.786845H102.007V23.3404H96.0959V9.26308H96.0485L90.7309 23.3442H85.4371L79.9296 9.29292H79.8821V23.3442H73.9711V0.786845Z" fill="#131313"/>
<path d="M104.381 23.3404V0.786845H122.355V5.88825H110.461V9.66955H121.405V14.0475H110.461V18.239H122.592V23.3404H104.381Z" fill="#131313"/>
<path d="M124.251 23.3404V0.786845H131.776L140.892 15.4347H140.915V0.786845H146.826V23.3404H139.301L130.185 8.50235H130.162V23.3404H124.251Z" fill="#131313"/>
<path d="M154.827 23.3404V6.61542H148.227V0.786845H167.697V6.61542H161.097V23.3442H154.83L154.827 23.3404Z" fill="#131313"/>
<path d="M168.144 12.0636C168.144 4.78816 173.129 0 180.631 0C188.132 0 193.118 4.78816 193.118 12.0636C193.118 19.3391 188.132 24.1273 180.631 24.1273C173.129 24.1273 168.144 19.3093 168.144 12.0636ZM186.83 12.0636C186.83 8.31589 184.361 5.82485 180.634 5.82485C176.907 5.82485 174.415 8.31216 174.415 12.0636C174.415 15.8151 176.907 18.3024 180.634 18.3024C184.361 18.3024 186.83 15.8151 186.83 12.0636Z" fill="#131313"/>
</svg>
